<svg xmlns="http://www.w3.org/2000/svg" width="27" height="27" viewBox="0 0 27 27"><g transform="translate(-1190.5 -1494.5)"><path d="M0,25.5a1.5,1.5,0,0,1-1.061-.439,1.5,1.5,0,0,1,0-2.121l24-24a1.5,1.5,0,0,1,2.121,0,1.5,1.5,0,0,1,0,2.121l-24,24A1.5,1.5,0,0,1,0,25.5Z" transform="translate(1192 1496)" fill="#0e76a3"/><path d="M16,1.5H0A1.5,1.5,0,0,1-1.5,0,1.5,1.5,0,0,1,0-1.5H16A1.5,1.5,0,0,1,17.5,0,1.5,1.5,0,0,1,16,1.5Z" transform="translate(1200 1496)" fill="#0e76a3"/><path d="M0,17.5A1.5,1.5,0,0,1-1.5,16V0A1.5,1.5,0,0,1,0-1.5,1.5,1.5,0,0,1,1.5,0V16A1.5,1.5,0,0,1,0,17.5Z" transform="translate(1216 1496)" fill="#0e76a3"/></g></svg>