<svg xmlns="http://www.w3.org/2000/svg" width="31.968" height="27.234" viewBox="0 0 31.968 27.234"><g transform="translate(-16.016 -18.383)"><path d="M29.968,1H0A1,1,0,0,1-1,0,1,1,0,0,1,0-1H29.968a1,1,0,0,1,1,1A1,1,0,0,1,29.968,1Z" transform="translate(17.016 19.383)" fill="#fff"/><path d="M29.968,1H0A1,1,0,0,1-1,0,1,1,0,0,1,0-1H29.968a1,1,0,0,1,1,1A1,1,0,0,1,29.968,1Z" transform="translate(17.016 32)" fill="#fff"/><path d="M29.968,1H0A1,1,0,0,1-1,0,1,1,0,0,1,0-1H29.968a1,1,0,0,1,1,1A1,1,0,0,1,29.968,1Z" transform="translate(17.016 44.617)" fill="#fff"/></g></svg>