<svg xmlns="http://www.w3.org/2000/svg" width="10" height="19.789" viewBox="0 0 10 19.789"><path d="M77.023,10.539h2.169v8.93a.319.319,0,0,0,.32.32h3.678a.319.319,0,0,0,.32-.32V10.581H86a.32.32,0,0,0,.317-.282L86.7,7.011a.319.319,0,0,0-.317-.356H83.507V4.6c0-.622.334-.936.994-.936h1.878a.32.32,0,0,0,.32-.32V.322A.319.319,0,0,0,86.38,0H83.673a4.959,4.959,0,0,0-3.247,1.223A3.4,3.4,0,0,0,79.3,4.245v2.41H77.023a.319.319,0,0,0-.32.32V10.22a.32.32,0,0,0,.32.319Z" transform="translate(-76.703)" fill="#fff"/></svg>