<svg xmlns="http://www.w3.org/2000/svg" width="20" height="20" viewBox="0 0 20 20"><path d="M14.042,0H5.958A5.965,5.965,0,0,0,0,5.958v8.084A5.965,5.965,0,0,0,5.958,20h8.084A5.965,5.965,0,0,0,20,14.042V5.958A5.965,5.965,0,0,0,14.042,0Zm3.946,14.042a3.946,3.946,0,0,1-3.946,3.946H5.958a3.946,3.946,0,0,1-3.946-3.946V5.958A3.946,3.946,0,0,1,5.958,2.012h8.084a3.946,3.946,0,0,1,3.946,3.946Z" transform="translate(0 0)" fill="#fff"/><path d="M138.9,133a5.9,5.9,0,1,0,5.9,5.9A5.9,5.9,0,0,0,138.9,133Zm0,9.511a3.608,3.608,0,1,1,3.608-3.608A3.608,3.608,0,0,1,138.9,142.511Z" transform="translate(-128.904 -128.904)" fill="#fff"/><circle cx="1.052" cy="1.052" r="1.052" transform="translate(14.242 3.704)" fill="#fff"/></svg>